<svg xmlns="http://www.w3.org/2000/svg" width="17.351" height="19.112" viewBox="0 0 17.351 19.112"><g transform="translate(0.75 0.75)"><path d="M1715.642,127.25h10.567a.75.75,0,0,1,.6.3l2.642,3.522a.75.75,0,0,1,.15.45v12.329a2.514,2.514,0,0,1-2.511,2.511h-12.328a2.514,2.514,0,0,1-2.511-2.511V131.522a.75.75,0,0,1,.15-.45l2.642-3.522A.75.75,0,0,1,1715.642,127.25Zm10.192,1.5h-9.817l-2.267,3.022v12.079a1.012,1.012,0,0,0,1.011,1.011h12.328a1.012,1.012,0,0,0,1.011-1.011V131.772Z" transform="translate(-1713 -128)" fill="#fff"/><path d="M15.851.75H0A.75.75,0,0,1-.75,0,.75.75,0,0,1,0-.75H15.851A.75.75,0,0,1,16.6,0,.75.75,0,0,1,15.851.75Z" transform="translate(0 3.523)" fill="#fff"/><path d="M1723.433,143.33a4.277,4.277,0,0,1-4.272-4.272.75.75,0,1,1,1.5,0,2.772,2.772,0,1,0,5.545,0,.75.75,0,1,1,1.5,0A4.277,4.277,0,0,1,1723.433,143.33Z" transform="translate(-1715.508 -132.013)" fill="#fff"/></g></svg>